<?xml version="1.0" encoding="UTF-8"?>
<svg width="512px" height="480px" viewBox="0 0 512 480" version="1.1" xmlns="http://www.w3.org/2000/svg" xmlns:xlink="http://www.w3.org/1999/xlink">
    <!-- Generator: Sketch 52.5 (67469) - http://www.bohemiancoding.com/sketch -->
    <title>photo-camera</title>
    <desc>Created with Sketch.</desc>
    <g id="Page-1" stroke="none" stroke-width="1" fill="none" fill-rule="evenodd">
        <g id="photo-camera" fill="#fc0000">
            <path d="M399.834,89.717 L112.165,89.717 L112.165,57.35 C112.165,33.542 131.466,14.241 155.274,14.241 L356.725,14.241 C380.533,14.241 399.834,33.542 399.834,57.35 L399.834,89.716 L399.833,89.716 L399.834,89.717 Z" id="Path" fill-opacity="0.353572237"></path>
            <g id="Group">
                <path d="M399.833,103.958 L112.165,103.958 C104.3,103.958 97.924,97.581 97.924,89.717 L97.924,57.35 C97.924,25.728 123.65,-7.10542736e-15 155.274,-7.10542736e-15 L356.725,-7.10542736e-15 C388.349,-7.10542736e-15 414.075,25.726 414.075,57.35 L414.075,89.717 C414.075,97.581 407.699,103.958 399.833,103.958 Z M126.406,75.475 L385.592,75.475 L385.592,57.35 C385.592,41.433 372.641,28.482 356.724,28.482 L155.274,28.482 C139.357,28.482 126.406,41.433 126.406,57.35 L126.406,75.475 Z" id="Shape" fill-rule="nonzero"></path>
                <path d="M255.999,479.999 C214.18,479.999 173.106,466.172 139.764,440.967 L59.624,440.967 C26.747,440.967 0,414.217 0,381.341 L0,135.723 C0,102.846 26.747,76.1 59.624,76.1 L452.375,76.1 C485.252,76.1 511.999,102.847 511.999,135.724 L511.999,381.343 C511.999,414.22 485.251,440.967 452.375,440.967 C444.511,440.967 438.134,434.59 438.134,426.726 C438.134,418.862 444.511,412.485 452.375,412.485 C469.548,412.485 483.517,398.515 483.517,381.343 L483.517,135.723 C483.517,118.55 469.547,104.581 452.375,104.581 L59.624,104.581 C42.452,104.581 28.482,118.55 28.482,135.723 L28.482,381.342 C28.482,398.515 42.452,412.484 59.624,412.484 L144.646,412.484 C147.876,412.484 151.01,413.582 153.534,415.599 C182.955,439.097 218.388,451.518 256.001,451.518 C293.616,451.518 329.047,439.097 358.467,415.599 C364.615,410.692 373.575,411.694 378.483,417.838 C383.392,423.983 382.388,432.945 376.244,437.854 C342.213,465.03 299.511,479.999 255.999,479.999 Z" id="Path"></path>
            </g>
            <circle id="Oval" fill-opacity="0.352723053" cx="256" cy="272.78" r="121.78"></circle>
            <g id="Group" transform="translate(52.000000, 136.000000)">
                <path d="M203.999,272.794 C128.999,272.794 67.982,211.776 67.982,136.775 C67.982,61.774 128.999,0.758 203.999,0.758 C278.999,0.758 340.018,61.775 340.018,136.775 C340.018,211.775 279,272.794 203.999,272.794 Z M203.999,29.24 C144.704,29.24 96.464,77.48 96.464,136.775 C96.464,196.072 144.704,244.312 203.999,244.312 C263.296,244.312 311.536,196.072 311.536,136.775 C311.536,77.479 263.296,29.24 203.999,29.24 Z" id="Shape" fill-rule="nonzero"></path>
                <path d="M60.165,43.481 L14.594,43.481 C6.729,43.481 0.353,37.104 0.353,29.24 C0.353,21.376 6.729,14.999 14.594,14.999 L60.165,14.999 C68.03,14.999 74.406,21.376 74.406,29.24 C74.406,37.104 68.03,43.481 60.165,43.481 Z" id="Path"></path>
                <path d="M393.405,43.481 L347.834,43.481 C339.97,43.481 333.593,37.104 333.593,29.24 C333.593,21.376 339.97,14.999 347.833,14.999 L393.404,14.999 C401.268,14.999 407.645,21.376 407.645,29.24 C407.645,37.104 401.27,43.481 393.405,43.481 Z" id="Path"></path>
            </g>
        </g>
    </g>
</svg>