<?xml version="1.0" encoding="UTF-8"?>
<svg width="17px" height="16px" viewBox="0 0 17 16" version="1.1" xmlns="http://www.w3.org/2000/svg" xmlns:xlink="http://www.w3.org/1999/xlink">
    <!-- Generator: Sketch 52.5 (67469) - http://www.bohemiancoding.com/sketch -->
    <title>media-icon</title>
    <desc>Created with Sketch.</desc>
    <g id="Page-1" stroke="none" stroke-width="1" fill="none" fill-rule="evenodd">
        <g id="media-icon" fill="#fc0000">
            <path d="M13,3 L3,3 L3,1.71348508 C3,0.767171021 3.67094473,0 4.49856258,0 L11.5014374,0 C12.3290553,0 13,0.767171021 13,1.71348508 L13,2.99996025 L12.9999652,2.99996025 L13,3 Z" id="Path" fill-opacity="0.353572237"></path>
            <g id="Group">
                <path d="M13.2757051,3.46526667 L3.72422852,3.46526667 C3.46308594,3.46526667 3.25138281,3.2527 3.25138281,2.99056667 L3.25138281,1.91166667 C3.25138281,0.8576 4.10556641,-7.10542736e-15 5.15558203,-7.10542736e-15 L11.8443848,-7.10542736e-15 C12.8944004,-7.10542736e-15 13.748584,0.857533333 13.748584,1.91166667 L13.748584,2.99056667 C13.748584,3.2527 13.5368809,3.46526667 13.2757051,3.46526667 Z M4.19707422,2.51583333 L12.8028594,2.51583333 L12.8028594,1.91166667 C12.8028594,1.3811 12.3728457,0.9494 11.8443516,0.9494 L5.15558203,0.9494 C4.62708789,0.9494 4.19707422,1.3811 4.19707422,1.91166667 L4.19707422,2.51583333 Z" id="Shape" fill-rule="nonzero"></path>
                <path d="M8.4999668,15.9999667 C7.11144531,15.9999667 5.74766016,15.5390667 4.64060156,14.6989 L1.97970312,14.6989 C0.888083984,14.6989 0,13.8072333 0,12.7113667 L0,4.5241 C0,3.4282 0.888083984,2.53666667 1.97970312,2.53666667 L15.0202637,2.53666667 C16.1118828,2.53666667 16.9999668,3.42823333 16.9999668,4.52413333 L16.9999668,12.7114333 C16.9999668,13.8073333 16.1118496,14.6989 15.0202637,14.6989 C14.7591543,14.6989 14.547418,14.4863333 14.547418,14.2242 C14.547418,13.9620667 14.7591543,13.7495 15.0202637,13.7495 C15.5904609,13.7495 16.0542754,13.2838333 16.0542754,12.7114333 L16.0542754,4.5241 C16.0542754,3.95166667 15.5904277,3.48603333 15.0202637,3.48603333 L1.97970312,3.48603333 C1.40953906,3.48603333 0.945691406,3.95166667 0.945691406,4.5241 L0.945691406,12.7114 C0.945691406,13.2838333 1.40953906,13.7494667 1.97970312,13.7494667 L4.80269922,13.7494667 C4.90994531,13.7494667 5.01400391,13.7860667 5.09780859,13.8533 C6.07467773,14.6365667 7.25116406,15.0506 8.5000332,15.0506 C9.74896875,15.0506 10.9253887,14.6365667 11.9022246,13.8533 C12.1063574,13.6897333 12.4038574,13.7231333 12.5668184,13.9279333 C12.7298125,14.1327667 12.6964766,14.4315 12.4924766,14.5951333 C11.362541,15.501 9.94470117,15.9999667 8.4999668,15.9999667 Z" id="Path"></path>
            </g>
            <circle id="Oval" fill-opacity="0.352723053" cx="9" cy="9" r="4"></circle>
            <g id="Group" transform="translate(2.000000, 5.000000)">
                <path d="M6.99996569,8.99320879 C4.42643627,8.99320879 2.33271569,6.98162637 2.33271569,4.50906593 C2.33271569,2.03650549 4.42643627,0.024989011 6.99996569,0.024989011 C9.5734951,0.024989011 11.6672843,2.03653846 11.6672843,4.50906593 C11.6672843,6.98159341 9.57352941,8.99320879 6.99996569,8.99320879 Z M6.99996569,0.963956044 C4.96533333,0.963956044 3.31003922,2.55428571 3.31003922,4.50906593 C3.31003922,6.46391209 4.96533333,8.05424176 6.99996569,8.05424176 C9.03466667,8.05424176 10.6899608,6.46391209 10.6899608,4.50906593 C10.6899608,2.55425275 9.03466667,0.963956044 6.99996569,0.963956044 Z" id="Shape" fill-rule="nonzero"></path>
                <path d="M2.06448529,1.43343956 L0.50077451,1.43343956 C0.230897059,1.43343956 0.0121127451,1.22320879 0.0121127451,0.963956044 C0.0121127451,0.704703297 0.230897059,0.494472527 0.50077451,0.494472527 L2.06448529,0.494472527 C2.33436275,0.494472527 2.55314706,0.704703297 2.55314706,0.963956044 C2.55314706,1.22320879 2.33436275,1.43343956 2.06448529,1.43343956 Z" id="Path"></path>
                <path d="M13.4991912,1.43343956 L11.9354804,1.43343956 C11.6656373,1.43343956 11.4468186,1.22320879 11.4468186,0.963956044 C11.4468186,0.704703297 11.6656373,0.494472527 11.9354461,0.494472527 L13.4991569,0.494472527 C13.769,0.494472527 13.9878186,0.704703297 13.9878186,0.963956044 C13.9878186,1.22320879 13.7690686,1.43343956 13.4991912,1.43343956 Z" id="Path"></path>
            </g>
        </g>
    </g>
</svg>