<?xml version="1.0" encoding="UTF-8"?>
<svg width="18px" height="16px" viewBox="0 0 18 16" version="1.1" xmlns="http://www.w3.org/2000/svg" xmlns:xlink="http://www.w3.org/1999/xlink">
    <!-- Generator: Sketch 52.5 (67469) - http://www.bohemiancoding.com/sketch -->
    <title>profolio-icon</title>
    <desc>Created with Sketch.</desc>
    <g id="Page-1" stroke="none" stroke-width="1" fill="none" fill-rule="evenodd">
        <g id="profolio-icon" fill="#fc0000">
            <polygon id="Path" fill-opacity="0.353883605" points="10.948648 4.21346671 10.948648 4.25853308 12.3651138 4.25853308 9.96006042 7.48733406 7.55497284 4.25853308 8.9029535 4.25853308 8.9029535 4.21346671 5.30197566 4.21346671 5.30197566 2 1 2 1 16 4.56923247 9 14 9 14 4.21346671"></polygon>
            <path d="M17.9328396,8.45225243 C17.8455467,8.29972411 17.686289,8.20608857 17.5141289,8.20608857 L14.3318576,8.20608857 L14.3318576,4.05955256 C14.3318576,3.78359887 14.1143109,3.559922 13.8460337,3.559922 L11.1959574,3.559922 L11.1959574,2.52327896 C11.1959574,2.24732526 10.9784106,2.02368455 10.7100983,2.02368455 C10.4418211,2.02368455 10.2242744,2.24736142 10.2242744,2.52327896 L10.2242744,4.05955256 L10.2242744,4.1032612 C10.2242744,4.3792149 10.4418211,4.60289177 10.7100983,4.60289177 L11.1462816,4.60289177 L9.69411852,6.444222 L8.24195543,4.60289177 L8.60775597,4.60289177 C8.87610344,4.60289177 9.09361502,4.3792149 9.09361502,4.1032612 L9.09361502,4.05955256 L9.09361502,0.999188823 L10.7100983,0.999188823 C10.9783755,0.999188823 11.1959222,0.775511956 11.1959222,0.499594412 C11.1959222,0.223676867 10.9783755,0 10.7100983,0 L8.60772081,0 C8.33940849,0 8.12189692,0.223676867 8.12189692,0.499594412 L8.12189692,3.559922 L5.39285968,3.559922 L5.39285968,1.91092422 C5.39285968,1.63497052 5.1753481,1.41132981 4.90700063,1.41132981 L0.485823894,1.41132981 C0.217511573,1.41132981 0,1.63500668 0,1.91092422 L0,15.5003694 C0,15.5016709 0.000140624906,15.5029724 0.000140624906,15.5042739 C0.000140624906,15.5072746 0.000421874718,15.510203 0.000492187171,15.5131675 C0.000914061889,15.5300508 0.00217968604,15.5467534 0.00421874718,15.563239 C0.00471093435,15.567252 0.00509765284,15.5712288 0.00566015247,15.5752417 C0.00843749436,15.5940773 0.0121288981,15.6125513 0.0169453012,15.6307 C0.0177187382,15.6337368 0.0187382687,15.6367013 0.0195820182,15.6397382 C0.0243281087,15.6566576 0.0299882612,15.6732156 0.0363866944,15.689412 C0.0374413812,15.6920511 0.0383202869,15.6947626 0.0394452861,15.6974017 C0.0468280937,15.7150443 0.0553007443,15.7320722 0.0645116756,15.7486663 C0.0654257375,15.7503655 0.0660585496,15.7521731 0.0670429239,15.7538 C0.0681679232,15.7557884 0.0696093285,15.7574876 0.070769484,15.7594398 C0.0804726025,15.7759255 0.0908788455,15.7919773 0.102410088,15.8071976 C0.103429618,15.8086075 0.104589774,15.8098005 0.105679617,15.8112105 C0.116507735,15.8252016 0.128179602,15.8385058 0.140413969,15.8512316 C0.143120998,15.8540876 0.145792871,15.8569798 0.148640526,15.8597275 C0.161753798,15.8727063 0.175499883,15.8849982 0.190019404,15.8964948 C0.192585809,15.8985555 0.195257682,15.9003993 0.197824087,15.9023515 C0.211429546,15.9126912 0.225562349,15.9222717 0.240292808,15.9311652 C0.242437338,15.9324667 0.244476399,15.9338767 0.246620929,15.9351059 C0.2625467,15.9443971 0.279175595,15.9526399 0.296226365,15.9600874 C0.299917768,15.9616781 0.303644328,15.9631965 0.307406045,15.9646788 C0.322839628,15.9709694 0.338695086,15.976573 0.354972419,15.9812006 C0.357257574,15.9818513 0.35943726,15.9826828 0.361687258,15.9832974 C0.362460695,15.9835144 0.363198976,15.9838036 0.364007569,15.9839843 C0.37536303,15.9870212 0.386788804,15.9885757 0.398214578,15.9907449 C0.406616916,15.9923356 0.414843473,15.9945771 0.423316123,15.9956978 C0.444198922,15.9984816 0.46508172,16 0.485894207,16 C0.4861403,16 0.486386394,15.9999638 0.486632487,15.9999638 L13.8460689,15.9999638 C14.114346,15.9999638 14.3318928,15.776287 14.3318928,15.5003333 C14.3318928,15.2243796 14.114346,15.0007389 13.8460689,15.0007389 L1.31122178,15.0007389 L4.43987985,9.20524124 L13.8459634,9.20524124 L16.6886607,9.20524124 L14.500045,13.2594071 C14.3697912,13.5006541 14.4544122,13.8047708 14.6890449,13.9387166 C14.9235017,14.0726263 15.2193765,13.985679 15.3496304,13.7443596 L17.9388864,8.94808696 C18.022488,8.79346178 18.0201676,8.60478075 17.9328396,8.45225243 Z M4.15395426,8.20605242 C3.97743484,8.20605242 3.81483729,8.30446012 3.72919673,8.46317055 L0.971682944,13.5710796 L0.971682944,2.41055479 L4.42114158,2.41055479 L4.42114158,4.05951641 C4.42114158,4.33547011 4.63865315,4.55914698 4.90696547,4.55914698 L6.95639769,4.55914698 L9.31675159,7.5520859 C9.40896637,7.66903994 9.54762253,7.73700705 9.69411852,7.73700705 C9.84061452,7.73700705 9.97920036,7.66907609 10.0714855,7.5520859 L12.4318393,4.55914698 L13.3601747,4.55914698 L13.3601747,8.20605242 L4.15395426,8.20605242 Z" id="Shape" fill-rule="nonzero"></path>
        </g>
    </g>
</svg>