<?xml version="1.0" encoding="UTF-8"?>
<svg width="384px" height="512px" viewBox="0 0 384 512" version="1.1" xmlns="http://www.w3.org/2000/svg" xmlns:xlink="http://www.w3.org/1999/xlink">
    <!-- Generator: Sketch 52.5 (67469) - http://www.bohemiancoding.com/sketch -->
    <title>placeholder</title>
    <desc>Created with Sketch.</desc>
    <g id="Page-1" stroke="none" stroke-width="1" fill="none" fill-rule="evenodd">
        <g id="placeholder" fill="#fc0000">
            <circle id="Oval" fill-opacity="0.352977808" cx="191.999" cy="191.991" r="106.247"></circle>
            <g id="Group">
                <path d="M192.001,312.597 C125.499,312.597 71.396,258.494 71.396,191.992 C71.396,125.49 125.499,71.388 192.001,71.388 C258.503,71.388 312.606,125.491 312.606,191.993 C312.606,258.495 258.503,312.597 192.001,312.597 Z M192.001,100.103 C141.333,100.103 100.112,141.324 100.112,191.992 C100.112,242.66 141.333,283.881 192.001,283.881 C242.669,283.881 283.89,242.66 283.89,191.992 C283.89,141.324 242.669,100.103 192.001,100.103 Z" id="Shape" fill-rule="nonzero"></path>
                <path d="M192.001,512 C188.516,512 185.032,510.738 182.285,508.212 C180.439,506.515 136.566,465.983 92.045,407 C31.401,326.656 0.651,254.101 0.651,191.349 C0.651,161.367 7.393,132.655 20.691,106.008 C24.232,98.912 32.855,96.032 39.949,99.573 C47.045,103.114 49.926,111.737 46.384,118.831 C35.09,141.46 29.364,165.858 29.364,191.35 C29.364,308.126 155.644,441.671 192.027,477.714 C203.052,466.855 222.292,447.131 243.633,421.769 C248.74,415.701 257.797,414.923 263.863,420.029 C269.931,425.135 270.71,434.193 265.603,440.259 C231.271,481.056 202.88,507.143 201.688,508.234 C198.951,510.745 195.475,512 192.001,512 Z" id="Path"></path>
                <path d="M302.198,382.618 C299.438,382.618 296.649,381.824 294.188,380.166 C287.612,375.735 285.872,366.812 290.304,360.236 C332.991,296.888 354.635,240.066 354.635,191.351 C354.635,101.673 281.678,28.716 192.001,28.716 C157.112,28.716 123.859,39.596 95.835,60.181 C89.446,64.875 80.459,63.5 75.764,57.108 C71.069,50.717 72.444,41.731 78.837,37.037 C111.823,12.807 150.955,0 192.001,0 C297.511,0 383.349,85.839 383.349,191.349 C383.349,245.885 360.055,308.106 314.116,376.282 C311.345,380.397 306.812,382.618 302.198,382.618 Z" id="Path"></path>
                <path d="M184.206,235.08 C180.532,235.08 176.856,233.679 174.054,230.875 L135.114,191.935 C129.507,186.328 129.507,177.237 135.114,171.629 C140.721,166.021 149.812,166.022 155.42,171.629 L184.207,200.416 L228.585,156.036 C234.192,150.429 243.283,150.429 248.891,156.036 C254.499,161.643 254.498,170.734 248.891,176.342 L194.36,230.873 C191.554,233.679 187.88,235.08 184.206,235.08 Z" id="Path"></path>
            </g>
        </g>
    </g>
</svg>