<?xml version="1.0" encoding="UTF-8"?>
<svg width="512px" height="508px" viewBox="0 0 512 508" version="1.1" xmlns="http://www.w3.org/2000/svg" xmlns:xlink="http://www.w3.org/1999/xlink">
    <!-- Generator: Sketch 52.5 (67469) - http://www.bohemiancoding.com/sketch -->
    <title>search</title>
    <desc>Created with Sketch.</desc>
    <g id="Page-1" stroke="none" stroke-width="1" fill="none" fill-rule="evenodd">
        <g id="search" fill="#fc0000">
            <g id="Group" transform="translate(100.000000, 0.000000)">
                <path d="M206.268,348.372 C127.732,348.372 63.838,284.478 63.838,205.942 C63.838,197.203 70.923,190.116 79.664,190.116 C88.404,190.116 95.49,197.203 95.49,205.942 C95.49,267.026 145.185,316.721 206.269,316.721 C267.353,316.721 317.048,267.026 317.048,205.942 C317.048,144.858 267.351,95.163 206.268,95.163 C197.529,95.163 190.442,88.076 190.442,79.337 C190.442,70.598 197.529,63.511 206.268,63.511 C284.804,63.511 348.698,127.405 348.698,205.941 C348.698,284.477 284.804,348.372 206.268,348.372 Z" id="Path"></path>
                <path d="M206.268,411.674 C137.229,411.674 73.154,377.315 34.866,319.764 C30.025,312.486 31.998,302.663 39.277,297.822 C46.554,292.981 56.377,294.953 61.219,302.233 C93.625,350.943 147.85,380.024 206.27,380.024 C302.258,380.024 380.351,301.931 380.351,205.943 C380.351,109.955 302.258,31.86 206.269,31.86 C110.28,31.86 32.188,109.953 32.188,205.941 C32.188,214.68 25.103,221.767 16.362,221.767 C7.621,221.767 0.536,214.68 0.536,205.941 C0.536,92.499 92.828,0.209 206.268,0.209 C319.71,0.209 412,92.499 412,205.941 C412,319.383 319.71,411.674 206.268,411.674 Z" id="Path"></path>
            </g>
            <path d="M141.246,299.976 C157.187,327.891 180.004,351.37 207.395,368.105 L93.554,481.379 C79.343,495.519 56.369,495.491 42.192,481.316 L26.476,465.6 C12.25,451.374 12.279,428.301 26.541,414.11 L141.246,299.976 Z" id="Path" fill-opacity="0.345674819"></path>
            <path d="M67.906,507.792 C53.965,507.792 40.86,502.362 31.002,492.506 L15.286,476.79 C5.411,466.915 -0.017,453.786 3.55271368e-15,439.822 C0.017,425.858 5.479,412.743 15.378,402.891 L130.083,288.757 C133.576,285.283 138.478,283.625 143.369,284.294 C148.25,284.954 152.546,287.85 154.988,292.128 C169.568,317.661 190.545,339.264 215.647,354.603 C219.793,357.137 222.544,361.432 223.112,366.255 C223.68,371.08 222.001,375.899 218.557,379.325 L104.716,492.6 C94.87,502.396 81.796,507.792 67.906,507.792 Z M138.502,325.029 L37.703,425.327 C33.808,429.203 31.659,434.365 31.651,439.861 C31.643,445.357 33.781,450.523 37.666,454.408 L53.382,470.124 C57.262,474.003 62.418,476.141 67.905,476.141 C73.371,476.141 78.516,474.017 82.392,470.162 L182.653,370.399 C165.714,357.638 150.792,342.306 138.502,325.029 Z" id="Shape" fill-rule="nonzero"></path>
        </g>
    </g>
</svg>