<?xml version="1.0" encoding="UTF-8"?>
<svg width="512px" height="444px" viewBox="0 0 512 444" version="1.1" xmlns="http://www.w3.org/2000/svg" xmlns:xlink="http://www.w3.org/1999/xlink">
    <!-- Generator: Sketch 52.5 (67469) - http://www.bohemiancoding.com/sketch -->
    <title>folder</title>
    <desc>Created with Sketch.</desc>
    <g id="Page-1" stroke="none" stroke-width="1" fill="none" fill-rule="evenodd">
        <g id="folder" fill="#fc0000">
            <polygon id="Path" fill-opacity="0.353883605" points="304.644 113.006 304.644 114.216 346.051 114.216 275.745 200.907 205.438 114.216 244.843 114.216 244.843 113.006 139.577 113.006 139.577 53.576 13.819 53.576 13.819 429.466 118.157 241.521 393.843 241.521 393.843 113.006"></polygon>
            <path d="M510.09,234.51 C507.607,230.291 503.077,227.701 498.18,227.701 L407.662,227.701 L407.662,113.006 C407.662,105.373 401.474,99.186 393.843,99.186 L318.463,99.186 L318.463,70.512 C318.463,62.879 312.275,56.693 304.643,56.693 C297.012,56.693 290.824,62.88 290.824,70.512 L290.824,113.006 L290.824,114.215 C290.824,121.848 297.012,128.035 304.643,128.035 L317.05,128.035 L275.744,178.967 L234.438,128.035 L244.843,128.035 C252.476,128.035 258.663,121.848 258.663,114.215 L258.663,113.006 L258.663,28.355 L304.643,28.355 C312.274,28.355 318.462,22.168 318.462,14.536 C318.462,6.904 312.274,0.717 304.643,0.717 L244.842,0.717 C237.21,0.717 231.023,6.904 231.023,14.536 L231.023,99.186 L153.397,99.186 L153.397,53.574 C153.397,45.941 147.21,39.755 139.577,39.755 L13.819,39.755 C6.187,39.755 0,45.942 0,53.574 L0,429.464 C0,429.5 0.004,429.536 0.004,429.572 C0.004,429.655 0.012,429.736 0.014,429.818 C0.026,430.285 0.062,430.747 0.12,431.203 C0.134,431.314 0.145,431.424 0.161,431.535 C0.24,432.056 0.345,432.567 0.482,433.069 C0.504,433.153 0.533,433.235 0.557,433.319 C0.692,433.787 0.853,434.245 1.035,434.693 C1.065,434.766 1.09,434.841 1.122,434.914 C1.332,435.402 1.573,435.873 1.835,436.332 C1.861,436.379 1.879,436.429 1.907,436.474 C1.939,436.529 1.98,436.576 2.013,436.63 C2.289,437.086 2.585,437.53 2.913,437.951 C2.942,437.99 2.975,438.023 3.006,438.062 C3.314,438.449 3.646,438.817 3.994,439.169 C4.071,439.248 4.147,439.328 4.228,439.404 C4.601,439.763 4.992,440.103 5.405,440.421 C5.478,440.478 5.554,440.529 5.627,440.583 C6.014,440.869 6.416,441.134 6.835,441.38 C6.896,441.416 6.954,441.455 7.015,441.489 C7.468,441.746 7.941,441.974 8.426,442.18 C8.531,442.224 8.637,442.266 8.744,442.307 C9.183,442.481 9.634,442.636 10.097,442.764 C10.162,442.782 10.224,442.805 10.288,442.822 C10.31,442.828 10.331,442.836 10.354,442.841 C10.677,442.925 11.002,442.968 11.327,443.028 C11.566,443.072 11.8,443.134 12.041,443.165 C12.635,443.242 13.229,443.284 13.821,443.284 C13.828,443.284 13.835,443.283 13.842,443.283 L393.844,443.283 C401.475,443.283 407.663,437.096 407.663,429.463 C407.663,421.83 401.475,415.644 393.844,415.644 L37.297,415.644 L126.29,255.338 L393.841,255.338 L474.7,255.338 L412.446,367.478 C408.741,374.151 411.148,382.563 417.822,386.268 C424.491,389.972 432.907,387.567 436.612,380.892 L510.262,248.225 C512.64,243.948 512.574,238.729 510.09,234.51 Z M118.157,227.7 C113.136,227.7 108.511,230.422 106.075,234.812 L27.639,376.099 L27.639,67.394 L125.757,67.394 L125.757,113.005 C125.757,120.638 131.944,126.825 139.576,126.825 L197.871,126.825 L265.01,209.611 C267.633,212.846 271.577,214.726 275.744,214.726 C279.911,214.726 283.853,212.847 286.478,209.611 L353.617,126.825 L380.023,126.825 L380.023,227.7 L118.157,227.7 Z" id="Shape" fill-rule="nonzero"></path>
        </g>
    </g>
</svg>